ply
format ascii 1.0
comment Created by Blender 3.0.0 - www.blender.org
element vertex 192
property float x
property float y
property float z
property float nx
property float ny
property float nz
property float s
property float t
property uchar red
property uchar green
property uchar blue
property uchar alpha
element face 55
property list uchar uint vertex_indices
end_header
1.000000 -1.000000 -1.000000 1.000000 -0.000152 -0.000193 0.375000 0.000000 255 255 255 255
1.000432 1.000602 -1.000136 1.000000 -0.000152 -0.000193 0.625000 0.000000 255 255 255 255
1.000688 1.000265 1.000104 1.000000 -0.000152 -0.000193 0.625000 0.250000 255 255 255 255
1.000514 -1.000070 1.000000 1.000000 -0.000152 -0.000193 0.375000 0.250000 255 255 255 255
-0.999743 -1.000035 1.000000 -1.000000 -0.000011 0.000498 0.375000 0.500000 255 255 255 255
-0.999778 0.999968 0.999991 -1.000000 -0.000011 0.000498 0.625000 0.500000 255 255 255 255
-1.000000 0.519828 0.519828 -1.000000 -0.000011 0.000498 0.564978 0.560022 255 255 255 255
-1.000000 -0.519828 0.519828 -1.000000 -0.000011 0.000498 0.435022 0.560022 255 255 255 255
-1.000000 -1.000000 -1.000000 -0.000107 0.000039 -1.000000 0.375000 0.750000 255 255 255 255
-0.999989 1.000015 -0.999707 -0.000107 0.000039 -1.000000 0.625000 0.750000 255 255 255 255
1.000432 1.000602 -1.000136 -0.000107 0.000039 -1.000000 0.625000 1.000000 255 255 255 255
1.000000 -1.000000 -1.000000 -0.000107 0.000039 -1.000000 0.375000 1.000000 255 255 255 255
1.000514 -1.000070 1.000000 -0.000009 -1.000000 -0.000026 0.125000 0.500000 255 255 255 255
-0.999743 -1.000035 1.000000 -0.000009 -1.000000 -0.000026 0.375000 0.500000 255 255 255 255
-1.000000 -1.000000 -1.000000 -0.000009 -1.000000 -0.000026 0.375000 0.750000 255 255 255 255
1.000000 -1.000000 -1.000000 -0.000009 -1.000000 -0.000026 0.125000 0.750000 255 255 255 255
-1.000000 0.519828 -0.519828 0.000000 0.000000 -1.000000 0.564978 0.689978 255 14 14 255
-1.000000 -0.519828 -0.519828 0.000000 0.000000 -1.000000 0.435022 0.689978 255 14 14 255
-12.023025 -0.519828 -0.519828 0.000000 0.000000 -1.000000 0.435022 0.689978 255 14 14 255
-12.023025 0.519828 -0.519828 0.000000 0.000000 -1.000000 0.564978 0.689978 255 14 14 255
-0.999989 1.000015 -0.999707 -1.000000 0.000004 -0.000012 0.625000 0.750000 255 255 255 255
-1.000000 -1.000000 -1.000000 -1.000000 0.000004 -0.000012 0.375000 0.750000 255 255 255 255
-1.000000 -0.519828 -0.519828 -1.000000 0.000004 -0.000012 0.435022 0.689978 255 255 255 255
-1.000000 0.519828 -0.519828 -1.000000 0.000004 -0.000012 0.564978 0.689978 255 254 254 255
-1.000000 -1.000000 -1.000000 -1.000000 -0.000267 0.000084 0.375000 0.750000 255 255 255 255
-0.999743 -1.000035 1.000000 -1.000000 -0.000267 0.000084 0.375000 0.500000 255 255 255 255
-1.000000 -0.519828 0.519828 -1.000000 -0.000267 0.000084 0.435022 0.560022 255 255 255 255
-1.000000 -0.519828 -0.519828 -1.000000 -0.000267 0.000084 0.435022 0.689978 255 255 255 255
-0.999778 0.999968 0.999991 -1.000000 0.000243 0.000069 0.625000 0.500000 255 255 255 255
-0.999989 1.000015 -0.999707 -1.000000 0.000243 0.000069 0.625000 0.750000 255 255 255 255
-1.000000 0.519828 -0.519828 -1.000000 0.000243 0.000069 0.564978 0.689978 255 254 254 255
-1.000000 0.519828 0.519828 -1.000000 0.000243 0.000069 0.564978 0.560022 255 255 255 255
-12.023025 0.519828 0.519828 1.000000 0.000000 0.000000 0.564978 0.560022 255 14 14 255
-12.023025 0.519828 -0.519828 1.000000 0.000000 0.000000 0.564978 0.689978 255 14 14 255
-12.023025 1.273032 -1.273032 1.000000 0.000000 0.000000 0.564978 0.689978 255 14 14 255
-12.023025 1.273032 1.273032 1.000000 0.000000 0.000000 0.564978 0.560022 255 65 65 255
-1.000000 -0.519828 -0.519828 0.000000 -1.000000 0.000000 0.435022 0.689978 255 14 14 255
-1.000000 -0.519828 0.519828 0.000000 -1.000000 0.000000 0.435022 0.560022 255 14 14 255
-12.023025 -0.519828 0.519828 0.000000 -1.000000 0.000000 0.435022 0.560022 255 14 14 255
-12.023025 -0.519828 -0.519828 0.000000 -1.000000 0.000000 0.435022 0.689978 255 14 14 255
-1.000000 0.519828 0.519828 -0.000000 1.000000 0.000000 0.564978 0.560022 255 14 14 255
-1.000000 0.519828 -0.519828 -0.000000 1.000000 0.000000 0.564978 0.689978 255 14 14 255
-12.023025 0.519828 -0.519828 -0.000000 1.000000 0.000000 0.564978 0.689978 255 14 14 255
-12.023025 0.519828 0.519828 -0.000000 1.000000 0.000000 0.564978 0.560022 255 14 14 255
-1.000000 -0.519828 0.519828 -0.000000 0.000000 1.000000 0.435022 0.560022 255 14 14 255
-1.000000 0.519828 0.519828 -0.000000 0.000000 1.000000 0.564978 0.560022 255 14 14 255
-12.023025 0.519828 0.519828 -0.000000 0.000000 1.000000 0.564978 0.560022 255 14 14 255
-12.023025 -0.519828 0.519828 -0.000000 0.000000 1.000000 0.435022 0.560022 255 14 14 255
1.000514 -1.000070 1.000000 -0.000107 -0.000034 1.000000 0.375000 0.500000 255 255 255 255
1.000688 1.000265 1.000104 -0.000107 -0.000034 1.000000 0.625000 0.500000 255 255 255 255
0.520341 0.519758 1.000000 -0.000107 -0.000034 1.000000 0.564978 0.560022 255 255 255 255
0.520341 -0.519897 1.000000 -0.000107 -0.000034 1.000000 0.435022 0.560022 255 255 255 255
-12.023025 -0.519828 0.519828 1.000000 0.000000 0.000000 0.435022 0.560022 255 14 14 255
-12.023025 -1.273032 1.273032 1.000000 0.000000 0.000000 0.435022 0.560022 255 14 14 255
-12.023025 -0.519828 -0.519828 1.000000 0.000000 -0.000000 0.435022 0.689978 255 14 14 255
-12.023025 -1.273032 -1.273032 1.000000 0.000000 -0.000000 0.435022 0.689978 255 14 14 255
-12.023025 -1.273032 1.273032 -0.395278 0.000000 0.918562 0.435022 0.560022 255 14 14 255
-12.023025 1.273032 1.273032 -0.395278 0.000000 0.918562 0.564978 0.560022 255 65 65 255
-14.981345 0.000000 0.000000 -0.395278 0.000000 0.918562 0.500000 0.625000 255 14 14 255
-12.023025 1.273032 1.273032 -0.395278 0.918562 0.000000 0.564978 0.560022 255 65 65 255
-12.023025 1.273032 -1.273032 -0.395278 0.918562 0.000000 0.564978 0.689978 255 14 14 255
-14.981345 0.000000 0.000000 -0.395278 0.918562 0.000000 0.500000 0.625000 255 14 14 255
-12.023025 1.273032 -1.273032 -0.395278 0.000000 -0.918562 0.564978 0.689978 255 14 14 255
-12.023025 -1.273032 -1.273032 -0.395278 0.000000 -0.918562 0.435022 0.689978 255 14 14 255
-14.981345 0.000000 0.000000 -0.395278 0.000000 -0.918562 0.500000 0.625000 255 14 14 255
-12.023025 -1.273032 -1.273032 -0.395278 -0.918562 -0.000000 0.435022 0.689978 255 14 14 255
-12.023025 -1.273032 1.273032 -0.395278 -0.918562 -0.000000 0.435022 0.560022 255 14 14 255
-14.981345 0.000000 0.000000 -0.395278 -0.918562 -0.000000 0.500000 0.625000 255 14 14 255
-0.519314 0.519758 1.000000 -1.000000 0.000000 0.000000 0.564978 0.689978 50 48 255 255
-0.519314 -0.519897 1.000000 -1.000000 0.000000 0.000000 0.435022 0.689978 50 48 255 255
-0.519312 -0.519897 12.023024 -1.000000 0.000000 0.000000 0.435022 0.689978 50 48 255 255
-0.519312 0.519758 12.023024 -1.000000 0.000000 0.000000 0.564978 0.689978 50 48 255 255
-0.999778 0.999968 0.999991 -0.000009 0.000003 1.000000 0.625000 0.750000 255 255 255 255
-0.999743 -1.000035 1.000000 -0.000009 0.000003 1.000000 0.375000 0.750000 255 255 255 255
-0.519314 -0.519897 1.000000 -0.000009 0.000003 1.000000 0.435022 0.689978 253 253 255 255
-0.519314 0.519758 1.000000 -0.000009 0.000003 1.000000 0.564978 0.689978 255 255 255 255
-0.999743 -1.000035 1.000000 -0.000000 -0.000000 1.000000 0.375000 0.750000 255 255 255 255
1.000514 -1.000070 1.000000 -0.000000 -0.000000 1.000000 0.375000 0.500000 255 255 255 255
0.520341 -0.519897 1.000000 -0.000000 -0.000000 1.000000 0.435022 0.560022 255 255 255 255
-0.519314 -0.519897 1.000000 -0.000000 -0.000000 1.000000 0.435022 0.689978 253 253 255 255
1.000688 1.000265 1.000104 -0.000037 -0.000098 1.000000 0.625000 0.500000 255 255 255 255
-0.999778 0.999968 0.999991 -0.000037 -0.000098 1.000000 0.625000 0.750000 255 255 255 255
-0.519314 0.519758 1.000000 -0.000037 -0.000098 1.000000 0.564978 0.689978 255 255 255 255
0.520341 0.519758 1.000000 -0.000037 -0.000098 1.000000 0.564978 0.560022 255 255 255 255
0.520343 0.519758 12.023025 -0.000000 0.000002 -1.000000 0.564978 0.560022 50 48 255 255
-0.519312 0.519758 12.023024 -0.000000 0.000002 -1.000000 0.564978 0.689978 50 48 255 255
-1.272517 1.272963 12.023026 -0.000000 0.000002 -1.000000 0.564978 0.689978 50 48 255 255
1.273547 1.272963 12.023025 -0.000000 0.000002 -1.000000 0.564978 0.560022 50 48 255 255
-0.519314 -0.519897 1.000000 -0.000000 -1.000000 0.000000 0.435022 0.689978 50 48 255 255
0.520341 -0.519897 1.000000 -0.000000 -1.000000 0.000000 0.435022 0.560022 50 48 255 255
0.520343 -0.519897 12.023025 -0.000000 -1.000000 0.000000 0.435022 0.560022 50 48 255 255
-0.519312 -0.519897 12.023024 -0.000000 -1.000000 0.000000 0.435022 0.689978 50 48 255 255
0.520341 0.519758 1.000000 0.000000 1.000000 -0.000000 0.564978 0.560022 50 48 255 255
-0.519314 0.519758 1.000000 0.000000 1.000000 -0.000000 0.564978 0.689978 50 48 255 255
-0.519312 0.519758 12.023024 0.000000 1.000000 -0.000000 0.564978 0.689978 50 48 255 255
0.520343 0.519758 12.023025 0.000000 1.000000 -0.000000 0.564978 0.560022 50 48 255 255
0.520341 -0.519897 1.000000 1.000000 0.000000 -0.000000 0.435022 0.560022 50 48 255 255
0.520341 0.519758 1.000000 1.000000 0.000000 -0.000000 0.564978 0.560022 50 48 255 255
0.520343 0.519758 12.023025 1.000000 0.000000 -0.000000 0.564978 0.560022 50 48 255 255
0.520343 -0.519897 12.023025 1.000000 0.000000 -0.000000 0.435022 0.560022 50 48 255 255
0.520343 -0.519897 12.023025 -0.000000 0.000000 -1.000000 0.435022 0.560022 50 48 255 255
0.520343 0.519758 12.023025 -0.000000 0.000000 -1.000000 0.564978 0.560022 50 48 255 255
1.273547 1.272963 12.023025 -0.000000 0.000000 -1.000000 0.564978 0.560022 50 48 255 255
1.273547 -1.273102 12.023025 -0.000000 0.000000 -1.000000 0.435022 0.560022 52 50 255 255
-0.519312 0.519758 12.023024 -0.000004 0.000000 -1.000000 0.564978 0.689978 50 48 255 255
-0.519312 -0.519897 12.023024 -0.000004 0.000000 -1.000000 0.435022 0.689978 50 48 255 255
-1.272517 -1.273102 12.023026 -0.000004 0.000000 -1.000000 0.435022 0.689978 50 48 255 255
-1.272517 1.272963 12.023026 -0.000004 0.000000 -1.000000 0.564978 0.689978 50 48 255 255
-0.519312 -0.519897 12.023024 -0.000000 -0.000002 -1.000000 0.435022 0.689978 50 48 255 255
0.520343 -0.519897 12.023025 -0.000000 -0.000002 -1.000000 0.435022 0.560022 50 48 255 255
1.273547 -1.273102 12.023025 -0.000000 -0.000002 -1.000000 0.435022 0.560022 52 50 255 255
-1.272517 -1.273102 12.023026 -0.000000 -0.000002 -1.000000 0.435022 0.689978 50 48 255 255
1.273547 -1.273102 12.023025 0.918562 0.000000 0.395277 0.435022 0.560022 52 50 255 255
1.273547 1.272963 12.023025 0.918562 0.000000 0.395277 0.564978 0.560022 50 48 255 255
0.000516 -0.000070 14.981346 0.918562 0.000000 0.395277 0.500000 0.625000 50 48 255 255
1.273547 1.272963 12.023025 0.000000 0.918562 0.395278 0.564978 0.560022 50 48 255 255
-1.272517 1.272963 12.023026 0.000000 0.918562 0.395278 0.564978 0.689978 50 48 255 255
0.000516 -0.000070 14.981346 0.000000 0.918562 0.395278 0.500000 0.625000 50 48 255 255
-1.272517 1.272963 12.023026 -0.918561 0.000000 0.395278 0.564978 0.689978 50 48 255 255
-1.272517 -1.273102 12.023026 -0.918561 0.000000 0.395278 0.435022 0.689978 50 48 255 255
0.000516 -0.000070 14.981346 -0.918561 0.000000 0.395278 0.500000 0.625000 50 48 255 255
-1.272517 -1.273102 12.023026 0.000000 -0.918562 0.395278 0.435022 0.689978 50 48 255 255
1.273547 -1.273102 12.023025 0.000000 -0.918562 0.395278 0.435022 0.560022 52 50 255 255
0.000516 -0.000070 14.981346 0.000000 -0.918562 0.395278 0.500000 0.625000 50 48 255 255
-0.999778 0.999968 0.999991 -0.000098 0.999989 -0.004611 0.375000 0.500000 255 255 255 255
1.000688 1.000265 1.000104 -0.000098 0.999989 -0.004611 0.625000 0.500000 255 255 255 255
0.521994 0.997903 0.519828 -0.000098 0.999989 -0.004611 0.564978 0.560022 255 255 255 255
-0.517661 0.997902 0.519828 -0.000098 0.999989 -0.004611 0.435022 0.560022 255 255 255 255
0.521994 0.997903 -0.519828 0.000000 -0.000000 -1.000000 0.564978 0.689978 42 255 40 255
-0.517661 0.997902 -0.519828 0.000000 -0.000000 -1.000000 0.435022 0.689978 42 255 40 255
-0.517662 12.020926 -0.519828 0.000000 -0.000000 -1.000000 0.435022 0.689978 42 255 40 255
0.521993 12.020927 -0.519828 0.000000 -0.000000 -1.000000 0.564978 0.689978 42 255 40 255
1.000432 1.000602 -1.000136 -0.000193 0.999987 0.005013 0.625000 0.750000 255 255 255 255
-0.999989 1.000015 -0.999707 -0.000193 0.999987 0.005013 0.375000 0.750000 255 255 255 255
-0.517661 0.997902 -0.519828 -0.000193 0.999987 0.005013 0.435022 0.689978 255 255 255 255
0.521994 0.997903 -0.519828 -0.000193 0.999987 0.005013 0.564978 0.689978 255 255 255 255
-0.999989 1.000015 -0.999707 0.004334 0.999991 0.000015 0.375000 0.750000 255 255 255 255
-0.999778 0.999968 0.999991 0.004334 0.999991 0.000015 0.375000 0.500000 255 255 255 255
-0.517661 0.997902 0.519828 0.004334 0.999991 0.000015 0.435022 0.560022 255 255 255 255
-0.517661 0.997902 -0.519828 0.004334 0.999991 0.000015 0.435022 0.689978 255 255 255 255
1.000688 1.000265 1.000104 -0.005288 0.999986 0.000111 0.625000 0.500000 255 255 255 255
1.000432 1.000602 -1.000136 -0.005288 0.999986 0.000111 0.625000 0.750000 255 255 255 255
0.521994 0.997903 -0.519828 -0.005288 0.999986 0.000111 0.564978 0.689978 255 255 255 255
0.521994 0.997903 0.519828 -0.005288 0.999986 0.000111 0.564978 0.560022 255 255 255 255
0.521993 12.020927 0.519828 -0.000000 -1.000000 0.000000 0.564978 0.560022 42 255 40 255
0.521993 12.020927 -0.519828 -0.000000 -1.000000 0.000000 0.564978 0.689978 42 255 40 255
1.275198 12.020927 -1.273032 -0.000000 -1.000000 0.000000 0.564978 0.689978 42 255 40 255
1.275198 12.020927 1.273032 -0.000000 -1.000000 0.000000 0.564978 0.560022 42 255 40 255
-0.517661 0.997902 -0.519828 -1.000000 -0.000000 0.000000 0.435022 0.689978 42 255 40 255
-0.517661 0.997902 0.519828 -1.000000 -0.000000 0.000000 0.435022 0.560022 42 255 40 255
-0.517662 12.020926 0.519828 -1.000000 -0.000000 0.000000 0.435022 0.560022 42 255 40 255
-0.517662 12.020926 -0.519828 -1.000000 -0.000000 0.000000 0.435022 0.689978 42 255 40 255
0.521994 0.997903 0.519828 1.000000 0.000000 0.000000 0.564978 0.560022 42 255 40 255
0.521994 0.997903 -0.519828 1.000000 0.000000 0.000000 0.564978 0.689978 42 255 40 255
0.521993 12.020927 -0.519828 1.000000 0.000000 0.000000 0.564978 0.689978 42 255 40 255
0.521993 12.020927 0.519828 1.000000 0.000000 0.000000 0.564978 0.560022 42 255 40 255
-0.517661 0.997902 0.519828 0.000000 0.000000 1.000000 0.435022 0.560022 42 255 40 255
0.521994 0.997903 0.519828 0.000000 0.000000 1.000000 0.564978 0.560022 42 255 40 255
0.521993 12.020927 0.519828 0.000000 0.000000 1.000000 0.564978 0.560022 42 255 40 255
-0.517662 12.020926 0.519828 0.000000 0.000000 1.000000 0.435022 0.560022 42 255 40 255
-0.517662 12.020926 0.519828 0.000000 -1.000000 0.000001 0.435022 0.560022 42 255 40 255
0.521993 12.020927 0.519828 0.000000 -1.000000 0.000001 0.564978 0.560022 42 255 40 255
1.275198 12.020927 1.273032 0.000000 -1.000000 0.000001 0.564978 0.560022 42 255 40 255
-1.270866 12.020927 1.273032 0.000000 -1.000000 0.000001 0.435022 0.560022 42 255 40 255
0.521993 12.020927 -0.519828 0.000000 -1.000000 -0.000001 0.564978 0.689978 42 255 40 255
-0.517662 12.020926 -0.519828 0.000000 -1.000000 -0.000001 0.435022 0.689978 42 255 40 255
-1.270866 12.020927 -1.273032 0.000000 -1.000000 -0.000001 0.435022 0.689978 42 255 40 255
1.275198 12.020927 -1.273032 0.000000 -1.000000 -0.000001 0.564978 0.689978 42 255 40 255
-0.517662 12.020926 -0.519828 -0.000001 -1.000000 0.000000 0.435022 0.689978 42 255 40 255
-0.517662 12.020926 0.519828 -0.000001 -1.000000 0.000000 0.435022 0.560022 42 255 40 255
-1.270866 12.020927 1.273032 -0.000001 -1.000000 0.000000 0.435022 0.560022 42 255 40 255
-1.270866 12.020927 -1.273032 -0.000001 -1.000000 0.000000 0.435022 0.689978 42 255 40 255
-1.270866 12.020927 1.273032 0.000000 0.395278 0.918562 0.435022 0.560022 42 255 40 255
1.275198 12.020927 1.273032 0.000000 0.395278 0.918562 0.564978 0.560022 42 255 40 255
0.002166 14.979248 0.000000 0.000000 0.395278 0.918562 0.500000 0.625000 42 255 40 255
1.275198 12.020927 1.273032 0.918562 0.395278 -0.000000 0.564978 0.560022 42 255 40 255
1.275198 12.020927 -1.273032 0.918562 0.395278 -0.000000 0.564978 0.689978 42 255 40 255
0.002166 14.979248 0.000000 0.918562 0.395278 -0.000000 0.500000 0.625000 42 255 40 255
1.275198 12.020927 -1.273032 0.000000 0.395278 -0.918562 0.564978 0.689978 42 255 40 255
-1.270866 12.020927 -1.273032 0.000000 0.395278 -0.918562 0.435022 0.689978 42 255 40 255
0.002166 14.979248 0.000000 0.000000 0.395278 -0.918562 0.500000 0.625000 42 255 40 255
-1.270866 12.020927 -1.273032 -0.918562 0.395278 0.000000 0.435022 0.689978 42 255 40 255
-1.270866 12.020927 1.273032 -0.918562 0.395278 0.000000 0.435022 0.560022 42 255 40 255
0.002166 14.979248 0.000000 -0.918562 0.395278 0.000000 0.500000 0.625000 42 255 40 255
-1.000000 0.519828 -0.519828 0.000000 0.000000 0.000000 0.564978 0.689978 255 254 254 255
-1.000000 -0.519828 -0.519828 0.000000 0.000000 0.000000 0.435022 0.689978 255 255 255 255
-1.000000 -0.519828 -0.519828 0.000000 0.000000 0.000000 0.435022 0.689978 255 255 255 255
-1.000000 0.519828 -0.519828 0.000000 0.000000 0.000000 0.564978 0.689978 255 254 254 255
-1.000000 -0.519828 0.519828 0.000000 0.000000 0.000000 0.435022 0.560022 255 255 255 255
-1.000000 -0.519828 0.519828 0.000000 0.000000 0.000000 0.435022 0.560022 255 255 255 255
-1.000000 0.519828 0.519828 0.000000 0.000000 0.000000 0.564978 0.560022 255 255 255 255
-1.000000 0.519828 0.519828 0.000000 0.000000 0.000000 0.564978 0.560022 255 255 255 255
4 0 1 2 3
4 4 5 6 7
4 8 9 10 11
4 12 13 14 15
4 16 17 18 19
4 20 21 22 23
4 24 25 26 27
4 28 29 30 31
4 32 33 34 35
4 36 37 38 39
4 40 41 42 43
4 44 45 46 47
4 48 49 50 51
4 52 32 35 53
4 33 54 55 34
4 54 52 53 55
3 56 57 58
3 59 60 61
3 62 63 64
3 65 66 67
4 68 69 70 71
4 72 73 74 75
4 76 77 78 79
4 80 81 82 83
4 84 85 86 87
4 88 89 90 91
4 92 93 94 95
4 96 97 98 99
4 100 101 102 103
4 104 105 106 107
4 108 109 110 111
3 112 113 114
3 115 116 117
3 118 119 120
3 121 122 123
4 124 125 126 127
4 128 129 130 131
4 132 133 134 135
4 136 137 138 139
4 140 141 142 143
4 144 145 146 147
4 148 149 150 151
4 152 153 154 155
4 156 157 158 159
4 160 161 162 163
4 164 165 166 167
4 168 169 170 171
3 172 173 174
3 175 176 177
3 178 179 180
3 181 182 183
4 184 185 186 187
4 188 185 186 189
4 184 190 191 187
4 190 188 189 191
