ply
format ascii 1.0
comment Created by Blender 3.0.0 - www.blender.org
element vertex 226
property float x
property float y
property float z
property float nx
property float ny
property float nz
property float s
property float t
property uchar red
property uchar green
property uchar blue
property uchar alpha
element face 98
property list uchar uint vertex_indices
end_header
-1.000000 -1.000000 1.000000 1.000000 0.000087 -0.000257 0.375000 0.000000 255 255 255 255
-1.000514 -1.000070 -1.000000 1.000000 0.000087 -0.000257 0.375000 0.250000 255 255 255 255
-1.000688 1.000265 -1.000104 1.000000 0.000087 -0.000257 0.625000 0.250000 255 255 255 255
0.999778 0.999968 -0.999991 -1.000000 0.000017 0.000517 0.625000 0.500000 255 255 255 255
0.999743 -1.000035 -1.000000 -1.000000 0.000017 0.000517 0.375000 0.500000 255 255 255 255
1.000000 -0.519828 -0.519828 -1.000000 0.000017 0.000517 0.435022 0.560022 255 255 255 255
0.999989 1.000015 0.999707 0.000000 -0.000147 -1.000000 0.625000 0.750000 255 255 255 255
1.000000 -1.000000 1.000000 0.000000 -0.000147 -1.000000 0.375000 0.750000 255 255 255 255
-1.000000 -1.000000 1.000000 0.000000 -0.000147 -1.000000 0.375000 1.000000 255 255 255 255
0.999743 -1.000035 -1.000000 -0.000017 1.000000 -0.000035 0.375000 0.500000 255 255 255 255
-1.000514 -1.000070 -1.000000 -0.000017 1.000000 -0.000035 0.125000 0.500000 255 255 255 255
-1.000000 -1.000000 1.000000 -0.000017 1.000000 -0.000035 0.125000 0.750000 255 255 255 255
1.000000 -0.519828 0.519828 -0.000000 -0.000000 -1.000000 0.435022 0.689978 255 14 14 255
1.000000 0.519828 0.519828 -0.000000 -0.000000 -1.000000 0.564978 0.689978 255 14 14 255
12.023025 0.519828 0.519828 -0.000000 -0.000000 -1.000000 0.564978 0.689978 255 14 14 255
1.000000 -1.000000 1.000000 -1.000000 -0.000006 -0.000018 0.375000 0.750000 255 255 255 255
0.999989 1.000015 0.999707 -1.000000 -0.000006 -0.000018 0.625000 0.750000 255 255 255 255
1.000000 0.519828 0.519828 -1.000000 -0.000006 -0.000018 0.564978 0.689978 255 254 254 255
0.999743 -1.000035 -1.000000 -1.000000 0.000128 0.000128 0.375000 0.500000 255 255 255 255
1.000000 -1.000000 1.000000 -1.000000 0.000128 0.000128 0.375000 0.750000 255 255 255 255
1.000000 -0.519828 0.519828 -1.000000 0.000128 0.000128 0.435022 0.689978 255 255 255 255
0.999989 1.000015 0.999707 -1.000000 -0.000357 0.000105 0.625000 0.750000 255 255 255 255
0.999778 0.999968 -0.999991 -1.000000 -0.000357 0.000105 0.625000 0.500000 255 255 255 255
1.000000 0.519828 -0.519828 -1.000000 -0.000357 0.000105 0.564978 0.560022 255 255 255 255
12.023025 0.519828 0.519828 1.000000 0.000000 -0.000000 0.564978 0.689978 255 14 14 255
12.023025 0.519828 -0.519828 1.000000 0.000000 -0.000000 0.564978 0.560022 255 14 14 255
12.023025 1.273032 -1.273032 1.000000 0.000000 -0.000000 0.564978 0.560022 255 65 65 255
1.000000 -0.519828 -0.519828 0.000000 1.000000 0.000000 0.435022 0.560022 255 14 14 255
1.000000 -0.519828 0.519828 0.000000 1.000000 0.000000 0.435022 0.689978 255 14 14 255
12.023025 -0.519828 0.519828 0.000000 1.000000 0.000000 0.435022 0.689978 255 14 14 255
1.000000 0.519828 0.519828 0.000000 -1.000000 0.000000 0.564978 0.689978 255 14 14 255
1.000000 0.519828 -0.519828 0.000000 -1.000000 0.000000 0.564978 0.560022 255 14 14 255
12.023025 0.519828 -0.519828 0.000000 -1.000000 0.000000 0.564978 0.560022 255 14 14 255
1.000000 0.519828 -0.519828 0.000000 -0.000000 1.000000 0.564978 0.560022 255 14 14 255
1.000000 -0.519828 -0.519828 0.000000 -0.000000 1.000000 0.435022 0.560022 255 14 14 255
12.023025 -0.519828 -0.519828 0.000000 -0.000000 1.000000 0.435022 0.560022 255 14 14 255
-1.000514 -1.000070 -1.000000 0.000001 0.000000 1.000000 0.375000 0.500000 255 255 255 255
-0.520341 -0.519897 -1.000000 0.000001 0.000000 1.000000 0.435022 0.560022 255 255 255 255
-0.520341 0.519758 -1.000000 0.000001 0.000000 1.000000 0.564978 0.560022 255 255 255 255
12.023025 -0.519828 -0.519828 1.000000 0.000000 0.000000 0.435022 0.560022 255 14 14 255
12.023025 -1.273032 -1.273032 1.000000 0.000000 0.000000 0.435022 0.560022 255 14 14 255
12.023025 -0.519828 0.519828 1.000000 0.000000 0.000000 0.435022 0.689978 255 14 14 255
12.023025 1.273032 1.273032 1.000000 0.000000 0.000000 0.564978 0.689978 255 14 14 255
12.023025 -1.273032 1.273032 1.000000 0.000000 0.000000 0.435022 0.689978 255 14 14 255
12.023025 -1.273032 -1.273032 -0.395278 0.000000 0.918562 0.435022 0.560022 255 14 14 255
14.981345 0.000000 0.000000 -0.395278 0.000000 0.918562 0.500000 0.625000 255 14 14 255
12.023025 1.273032 -1.273032 -0.395278 0.000000 0.918562 0.564978 0.560022 255 65 65 255
12.023025 1.273032 -1.273032 -0.395278 -0.918562 0.000000 0.564978 0.560022 255 65 65 255
14.981345 0.000000 0.000000 -0.395278 -0.918562 0.000000 0.500000 0.625000 255 14 14 255
12.023025 1.273032 1.273032 -0.395278 -0.918562 0.000000 0.564978 0.689978 255 14 14 255
12.023025 1.273032 1.273032 -0.395278 0.000000 -0.918562 0.564978 0.689978 255 14 14 255
14.981345 0.000000 0.000000 -0.395278 0.000000 -0.918562 0.500000 0.625000 255 14 14 255
12.023025 -1.273032 1.273032 -0.395278 0.000000 -0.918562 0.435022 0.689978 255 14 14 255
12.023025 -1.273032 1.273032 -0.395278 0.918562 0.000000 0.435022 0.689978 255 14 14 255
14.981345 0.000000 0.000000 -0.395278 0.918562 0.000000 0.500000 0.625000 255 14 14 255
12.023025 -1.273032 -1.273032 -0.395278 0.918562 0.000000 0.435022 0.560022 255 14 14 255
0.519314 -0.519897 -1.000000 -1.000000 0.000000 0.000000 0.435022 0.689978 50 48 255 255
0.519314 0.519758 -1.000000 -1.000000 0.000000 0.000000 0.564978 0.689978 50 48 255 255
0.519312 0.519758 -12.023024 -1.000000 0.000000 0.000000 0.564978 0.689978 50 48 255 255
0.999743 -1.000035 -1.000000 -0.000014 -0.000005 1.000000 0.375000 0.750000 255 255 255 255
0.999778 0.999968 -0.999991 -0.000014 -0.000005 1.000000 0.625000 0.750000 255 255 255 255
0.519314 0.519758 -1.000000 -0.000014 -0.000005 1.000000 0.564978 0.689978 255 255 255 255
-1.000514 -1.000070 -1.000000 0.000000 -0.000001 1.000000 0.375000 0.500000 255 255 255 255
0.999743 -1.000035 -1.000000 0.000000 -0.000001 1.000000 0.375000 0.750000 255 255 255 255
0.519314 -0.519897 -1.000000 0.000000 -0.000001 1.000000 0.435022 0.689978 253 253 255 255
-1.000688 1.000265 -1.000104 -0.000001 0.000215 1.000000 0.625000 0.500000 255 255 255 255
-0.520341 0.519758 -1.000000 -0.000001 0.000215 1.000000 0.564978 0.560022 255 255 255 255
0.519314 0.519758 -1.000000 -0.000001 0.000215 1.000000 0.564978 0.689978 255 255 255 255
0.519312 0.519758 -12.023024 0.000001 0.000001 -1.000000 0.564978 0.689978 50 48 255 255
-0.520343 0.519758 -12.023025 0.000001 0.000001 -1.000000 0.564978 0.560022 50 48 255 255
-1.273547 1.272963 -12.023025 0.000001 0.000001 -1.000000 0.564978 0.560022 50 48 255 255
-0.520341 -0.519897 -1.000000 -0.000000 1.000000 0.000000 0.435022 0.560022 50 48 255 255
0.519314 -0.519897 -1.000000 -0.000000 1.000000 0.000000 0.435022 0.689978 50 48 255 255
0.519312 -0.519897 -12.023024 -0.000000 1.000000 0.000000 0.435022 0.689978 50 48 255 255
-0.520341 0.519758 -1.000000 0.000000 -1.000000 -0.000000 0.564978 0.560022 50 48 255 255
-0.520343 0.519758 -12.023025 0.000000 -1.000000 -0.000000 0.564978 0.560022 50 48 255 255
0.519312 0.519758 -12.023024 0.000000 -1.000000 -0.000000 0.564978 0.689978 50 48 255 255
-0.520341 0.519758 -1.000000 1.000000 0.000000 -0.000000 0.564978 0.560022 50 48 255 255
-0.520341 -0.519897 -1.000000 1.000000 0.000000 -0.000000 0.435022 0.560022 50 48 255 255
-0.520343 -0.519897 -12.023025 1.000000 0.000000 -0.000000 0.435022 0.560022 50 48 255 255
-0.520343 0.519758 -12.023025 0.000000 0.000000 -1.000000 0.564978 0.560022 50 48 255 255
-0.520343 -0.519897 -12.023025 0.000000 0.000000 -1.000000 0.435022 0.560022 50 48 255 255
-1.273547 -1.273102 -12.023025 0.000000 0.000000 -1.000000 0.435022 0.560022 52 50 255 255
0.519312 -0.519897 -12.023024 -0.000004 -0.000000 -1.000000 0.435022 0.689978 50 48 255 255
0.519312 0.519758 -12.023024 -0.000004 -0.000000 -1.000000 0.564978 0.689978 50 48 255 255
1.272517 1.272963 -12.023026 -0.000004 -0.000000 -1.000000 0.564978 0.689978 50 48 255 255
0.519312 -0.519897 -12.023024 -0.000001 0.000003 -1.000000 0.435022 0.689978 50 48 255 255
1.272517 -1.273102 -12.023026 -0.000001 0.000003 -1.000000 0.435022 0.689978 50 48 255 255
-1.273547 -1.273102 -12.023025 -0.000001 0.000003 -1.000000 0.435022 0.560022 52 50 255 255
-1.273547 -1.273102 -12.023025 0.918562 0.000000 0.395277 0.435022 0.560022 52 50 255 255
-0.000516 -0.000070 -14.981346 0.918562 0.000000 0.395277 0.500000 0.625000 50 48 255 255
-1.273547 1.272963 -12.023025 0.918562 0.000000 0.395277 0.564978 0.560022 50 48 255 255
-1.273547 1.272963 -12.023025 0.000000 -0.918562 0.395278 0.564978 0.560022 50 48 255 255
-0.000516 -0.000070 -14.981346 0.000000 -0.918562 0.395278 0.500000 0.625000 50 48 255 255
1.272517 1.272963 -12.023026 0.000000 -0.918562 0.395278 0.564978 0.689978 50 48 255 255
1.272517 1.272963 -12.023026 -0.918562 0.000000 0.395278 0.564978 0.689978 50 48 255 255
-0.000516 -0.000070 -14.981346 -0.918562 0.000000 0.395278 0.500000 0.625000 50 48 255 255
1.272517 -1.273102 -12.023026 -0.918562 0.000000 0.395278 0.435022 0.689978 50 48 255 255
1.272517 -1.273102 -12.023026 0.000000 0.918562 0.395278 0.435022 0.689978 50 48 255 255
-0.000516 -0.000070 -14.981346 0.000000 0.918562 0.395278 0.500000 0.625000 50 48 255 255
-1.273547 -1.273102 -12.023025 0.000000 0.918562 0.395278 0.435022 0.560022 52 50 255 255
-1.000688 1.000265 -1.000104 -0.000148 -0.999990 -0.004452 0.625000 0.500000 255 255 255 255
0.999778 0.999968 -0.999991 -0.000148 -0.999990 -0.004452 0.375000 0.500000 255 255 255 255
0.517661 0.997902 -0.519828 -0.000148 -0.999990 -0.004452 0.435022 0.560022 255 255 255 255
-0.521994 0.997903 0.519828 -0.000000 0.000000 -1.000000 0.564978 0.689978 42 255 40 255
-0.521993 12.020927 0.519828 -0.000000 0.000000 -1.000000 0.564978 0.689978 42 255 40 255
0.517662 12.020926 0.519828 -0.000000 0.000000 -1.000000 0.435022 0.689978 42 255 40 255
-1.000432 1.000602 1.000136 -0.000001 -0.999984 0.005619 0.625000 0.750000 255 255 255 255
-0.521994 0.997903 0.519828 -0.000001 -0.999984 0.005619 0.564978 0.689978 255 255 255 255
0.517661 0.997902 0.519828 -0.000001 -0.999984 0.005619 0.435022 0.689978 255 255 255 255
0.999989 1.000015 0.999707 0.004382 -0.999990 0.000000 0.375000 0.750000 255 255 255 255
0.517661 0.997902 0.519828 0.004382 -0.999990 0.000000 0.435022 0.689978 255 255 255 255
0.517661 0.997902 -0.519828 0.004382 -0.999990 0.000000 0.435022 0.560022 255 255 255 255
-1.000688 1.000265 -1.000104 -0.004934 -0.999988 -0.000000 0.625000 0.500000 255 255 255 255
-0.521994 0.997903 -0.519828 -0.004934 -0.999988 -0.000000 0.564978 0.560022 255 255 255 255
-0.521994 0.997903 0.519828 -0.004934 -0.999988 -0.000000 0.564978 0.689978 255 255 255 255
-0.521993 12.020927 0.519828 0.000000 1.000000 0.000000 0.564978 0.689978 42 255 40 255
-0.521993 12.020927 -0.519828 0.000000 1.000000 0.000000 0.564978 0.560022 42 255 40 255
-1.275198 12.020927 -1.273032 0.000000 1.000000 0.000000 0.564978 0.560022 42 255 40 255
0.517661 0.997902 -0.519828 -1.000000 0.000000 0.000000 0.435022 0.560022 42 255 40 255
0.517661 0.997902 0.519828 -1.000000 0.000000 0.000000 0.435022 0.689978 42 255 40 255
0.517662 12.020926 0.519828 -1.000000 0.000000 0.000000 0.435022 0.689978 42 255 40 255
-0.521994 0.997903 0.519828 1.000000 -0.000000 0.000000 0.564978 0.689978 42 255 40 255
-0.521994 0.997903 -0.519828 1.000000 -0.000000 0.000000 0.564978 0.560022 42 255 40 255
-0.521993 12.020927 -0.519828 1.000000 -0.000000 0.000000 0.564978 0.560022 42 255 40 255
-0.521994 0.997903 -0.519828 0.000000 0.000000 1.000000 0.564978 0.560022 42 255 40 255
0.517661 0.997902 -0.519828 0.000000 0.000000 1.000000 0.435022 0.560022 42 255 40 255
0.517662 12.020926 -0.519828 0.000000 0.000000 1.000000 0.435022 0.560022 42 255 40 255
-0.521993 12.020927 -0.519828 0.000001 1.000000 0.000002 0.564978 0.560022 42 255 40 255
0.517662 12.020926 -0.519828 0.000001 1.000000 0.000002 0.435022 0.560022 42 255 40 255
1.270866 12.020927 -1.273032 0.000001 1.000000 0.000002 0.435022 0.560022 42 255 40 255
-1.275198 12.020927 1.273032 0.000000 1.000000 0.000000 0.564978 0.689978 42 255 40 255
1.270866 12.020927 1.273032 0.000000 1.000000 0.000000 0.435022 0.689978 42 255 40 255
0.517662 12.020926 -0.519828 -0.000001 1.000000 0.000000 0.435022 0.560022 42 255 40 255
0.517662 12.020926 0.519828 -0.000001 1.000000 0.000000 0.435022 0.689978 42 255 40 255
1.270866 12.020927 1.273032 -0.000001 1.000000 0.000000 0.435022 0.689978 42 255 40 255
1.270866 12.020927 -1.273032 0.000000 -0.395278 0.918562 0.435022 0.560022 42 255 40 255
-0.002166 14.979248 0.000000 0.000000 -0.395278 0.918562 0.500000 0.625000 42 255 40 255
-1.275198 12.020927 -1.273032 0.000000 -0.395278 0.918562 0.564978 0.560022 42 255 40 255
-1.275198 12.020927 -1.273032 0.918562 -0.395278 0.000000 0.564978 0.560022 42 255 40 255
-0.002166 14.979248 0.000000 0.918562 -0.395278 0.000000 0.500000 0.625000 42 255 40 255
-1.275198 12.020927 1.273032 0.918562 -0.395278 0.000000 0.564978 0.689978 42 255 40 255
-1.275198 12.020927 1.273032 0.000000 -0.395278 -0.918562 0.564978 0.689978 42 255 40 255
-0.002166 14.979248 0.000000 0.000000 -0.395278 -0.918562 0.500000 0.625000 42 255 40 255
1.270866 12.020927 1.273032 0.000000 -0.395278 -0.918562 0.435022 0.689978 42 255 40 255
1.270866 12.020927 1.273032 -0.918562 -0.395278 0.000000 0.435022 0.689978 42 255 40 255
-0.002166 14.979248 0.000000 -0.918562 -0.395278 0.000000 0.500000 0.625000 42 255 40 255
1.270866 12.020927 -1.273032 -0.918562 -0.395278 0.000000 0.435022 0.560022 42 255 40 255
1.000000 0.519828 0.519828 0.000000 0.000000 0.000000 0.564978 0.689978 255 254 254 255
1.000000 0.519828 0.519828 0.000000 0.000000 0.000000 0.564978 0.689978 255 254 254 255
1.000000 -0.519828 0.519828 0.000000 0.000000 0.000000 0.435022 0.689978 255 255 255 255
1.000000 -0.519828 -0.519828 0.000000 0.000000 0.000000 0.435022 0.560022 255 255 255 255
1.000000 -0.519828 -0.519828 0.000000 0.000000 0.000000 0.435022 0.560022 255 255 255 255
1.000000 0.519828 -0.519828 0.000000 0.000000 0.000000 0.564978 0.560022 255 255 255 255
1.000000 0.519828 -0.519828 0.000000 0.000000 0.000000 0.564978 0.560022 255 255 255 255
-1.000000 -1.000000 1.000000 1.000000 0.000216 -0.000128 0.375000 0.000000 255 255 255 255
-1.000688 1.000265 -1.000104 1.000000 0.000216 -0.000128 0.625000 0.250000 255 255 255 255
-1.000432 1.000602 1.000136 1.000000 0.000216 -0.000128 0.625000 0.000000 255 255 255 255
0.999778 0.999968 -0.999991 -1.000000 0.000000 0.000462 0.625000 0.500000 255 255 255 255
1.000000 -0.519828 -0.519828 -1.000000 0.000000 0.000462 0.435022 0.560022 255 255 255 255
1.000000 0.519828 -0.519828 -1.000000 0.000000 0.000462 0.564978 0.560022 255 255 255 255
0.999989 1.000015 0.999707 -0.000215 0.000068 -1.000000 0.625000 0.750000 255 255 255 255
-1.000000 -1.000000 1.000000 -0.000215 0.000068 -1.000000 0.375000 1.000000 255 255 255 255
-1.000432 1.000602 1.000136 -0.000215 0.000068 -1.000000 0.625000 1.000000 255 255 255 255
0.999743 -1.000035 -1.000000 0.000000 1.000000 -0.000017 0.375000 0.500000 255 255 255 255
-1.000000 -1.000000 1.000000 0.000000 1.000000 -0.000017 0.125000 0.750000 255 255 255 255
1.000000 -1.000000 1.000000 0.000000 1.000000 -0.000017 0.375000 0.750000 255 255 255 255
12.023025 -0.519828 0.519828 -0.000000 0.000000 -1.000000 0.435022 0.689978 255 14 14 255
1.000000 -1.000000 1.000000 -1.000000 0.000000 0.000000 0.375000 0.750000 255 255 255 255
1.000000 0.519828 0.519828 -1.000000 0.000000 0.000000 0.564978 0.689978 255 254 254 255
1.000000 -0.519828 0.519828 -1.000000 0.000000 0.000000 0.435022 0.689978 255 255 255 255
0.999743 -1.000035 -1.000000 -1.000000 0.000534 0.000000 0.375000 0.500000 255 255 255 255
1.000000 -0.519828 0.519828 -1.000000 0.000534 0.000000 0.435022 0.689978 255 255 255 255
1.000000 -0.519828 -0.519828 -1.000000 0.000534 0.000000 0.435022 0.560022 255 255 255 255
0.999989 1.000015 0.999707 -1.000000 -0.000023 -0.000000 0.625000 0.750000 255 255 255 255
1.000000 0.519828 -0.519828 -1.000000 -0.000023 -0.000000 0.564978 0.560022 255 255 255 255
1.000000 0.519828 0.519828 -1.000000 -0.000023 -0.000000 0.564978 0.689978 255 254 254 255
12.023025 -0.519828 -0.519828 0.000000 1.000000 -0.000000 0.435022 0.560022 255 14 14 255
12.023025 0.519828 0.519828 -0.000000 -1.000000 -0.000000 0.564978 0.689978 255 14 14 255
12.023025 0.519828 -0.519828 0.000000 0.000000 1.000000 0.564978 0.560022 255 14 14 255
-1.000514 -1.000070 -1.000000 -0.000163 0.000052 1.000000 0.375000 0.500000 255 255 255 255
-0.520341 0.519758 -1.000000 -0.000163 0.000052 1.000000 0.564978 0.560022 255 255 255 255
-1.000688 1.000265 -1.000104 -0.000163 0.000052 1.000000 0.625000 0.500000 255 255 255 255
0.519312 -0.519897 -12.023024 -1.000000 0.000000 0.000000 0.435022 0.689978 50 48 255 255
0.999743 -1.000035 -1.000000 0.000001 0.000000 1.000000 0.375000 0.750000 255 255 255 255
0.519314 0.519758 -1.000000 0.000001 0.000000 1.000000 0.564978 0.689978 255 255 255 255
0.519314 -0.519897 -1.000000 0.000001 0.000000 1.000000 0.435022 0.689978 253 253 255 255
-1.000514 -1.000070 -1.000000 -0.000001 0.000002 1.000000 0.375000 0.500000 255 255 255 255
0.519314 -0.519897 -1.000000 -0.000001 0.000002 1.000000 0.435022 0.689978 253 253 255 255
-0.520341 -0.519897 -1.000000 -0.000001 0.000002 1.000000 0.435022 0.560022 255 255 255 255
-1.000688 1.000265 -1.000104 -0.000056 0.000038 1.000000 0.625000 0.500000 255 255 255 255
0.519314 0.519758 -1.000000 -0.000056 0.000038 1.000000 0.564978 0.689978 255 255 255 255
0.999778 0.999968 -0.999991 -0.000056 0.000038 1.000000 0.625000 0.750000 255 255 255 255
0.519312 0.519758 -12.023024 -0.000001 -0.000003 -1.000000 0.564978 0.689978 50 48 255 255
-1.273547 1.272963 -12.023025 -0.000001 -0.000003 -1.000000 0.564978 0.560022 50 48 255 255
1.272517 1.272963 -12.023026 -0.000001 -0.000003 -1.000000 0.564978 0.689978 50 48 255 255
-0.520343 -0.519897 -12.023025 -0.000000 1.000000 0.000000 0.435022 0.560022 50 48 255 255
0.519314 0.519758 -1.000000 0.000000 -1.000000 -0.000000 0.564978 0.689978 50 48 255 255
-0.520343 0.519758 -12.023025 1.000000 0.000000 -0.000000 0.564978 0.560022 50 48 255 255
-1.273547 1.272963 -12.023025 0.000000 0.000000 -1.000000 0.564978 0.560022 50 48 255 255
1.272517 -1.273102 -12.023026 -0.000004 0.000000 -1.000000 0.435022 0.689978 50 48 255 255
0.519312 -0.519897 -12.023024 0.000001 -0.000001 -1.000000 0.435022 0.689978 50 48 255 255
-1.273547 -1.273102 -12.023025 0.000001 -0.000001 -1.000000 0.435022 0.560022 52 50 255 255
-0.520343 -0.519897 -12.023025 0.000001 -0.000001 -1.000000 0.435022 0.560022 50 48 255 255
-1.000688 1.000265 -1.000104 -0.000001 -0.999988 -0.004917 0.625000 0.500000 255 255 255 255
0.517661 0.997902 -0.519828 -0.000001 -0.999988 -0.004917 0.435022 0.560022 255 255 255 255
-0.521994 0.997903 -0.519828 -0.000001 -0.999988 -0.004917 0.564978 0.560022 255 255 255 255
0.517661 0.997902 0.519828 -0.000000 0.000000 -1.000000 0.435022 0.689978 42 255 40 255
-1.000432 1.000602 1.000136 -0.000292 -0.999989 0.004698 0.625000 0.750000 255 255 255 255
0.517661 0.997902 0.519828 -0.000292 -0.999989 0.004698 0.435022 0.689978 255 255 255 255
0.999989 1.000015 0.999707 -0.000292 -0.999989 0.004698 0.375000 0.750000 255 255 255 255
0.999989 1.000015 0.999707 0.004309 -0.999991 0.000023 0.375000 0.750000 255 255 255 255
0.517661 0.997902 -0.519828 0.004309 -0.999991 0.000023 0.435022 0.560022 255 255 255 255
0.999778 0.999968 -0.999991 0.004309 -0.999991 0.000023 0.375000 0.500000 255 255 255 255
-1.000688 1.000265 -1.000104 -0.005472 -0.999985 0.000169 0.625000 0.500000 255 255 255 255
-0.521994 0.997903 0.519828 -0.005472 -0.999985 0.000169 0.564978 0.689978 255 255 255 255
-1.000432 1.000602 1.000136 -0.005472 -0.999985 0.000169 0.625000 0.750000 255 255 255 255
0.517662 12.020926 -0.519828 -1.000000 0.000000 0.000000 0.435022 0.560022 42 255 40 255
-0.521993 12.020927 0.519828 1.000000 -0.000000 0.000000 0.564978 0.689978 42 255 40 255
-0.521993 12.020927 -0.519828 0.000000 0.000000 1.000000 0.564978 0.560022 42 255 40 255
1.270866 12.020927 -1.273032 0.000000 1.000000 -0.000000 0.435022 0.560022 42 255 40 255
-0.521993 12.020927 0.519828 0.000001 1.000000 -0.000002 0.564978 0.689978 42 255 40 255
1.270866 12.020927 1.273032 0.000001 1.000000 -0.000002 0.435022 0.689978 42 255 40 255
0.517662 12.020926 0.519828 0.000001 1.000000 -0.000002 0.435022 0.689978 42 255 40 255
1.270866 12.020927 -1.273032 -0.000001 1.000000 0.000000 0.435022 0.560022 42 255 40 255
1.000000 -0.519828 0.519828 0.000000 0.000000 0.000000 0.435022 0.689978 255 255 255 255
3 0 1 2
3 3 4 5
3 6 7 8
3 9 10 11
3 12 13 14
3 15 16 17
3 18 19 20
3 21 22 23
3 24 25 26
3 27 28 29
3 30 31 32
3 33 34 35
3 36 37 38
3 25 39 40
3 41 24 42
3 39 41 43
3 44 45 46
3 47 48 49
3 50 51 52
3 53 54 55
3 56 57 58
3 59 60 61
3 62 63 64
3 65 66 67
3 68 69 70
3 71 72 73
3 74 75 76
3 77 78 79
3 80 81 82
3 83 84 85
3 86 87 88
3 89 90 91
3 92 93 94
3 95 96 97
3 98 99 100
3 101 102 103
3 104 105 106
3 107 108 109
3 110 111 112
3 113 114 115
3 116 117 118
3 119 120 121
3 122 123 124
3 125 126 127
3 128 129 130
3 116 131 132
3 133 134 135
3 136 137 138
3 139 140 141
3 142 143 144
3 145 146 147
3 148 149 150
3 151 150 152
3 148 153 149
3 154 152 153
3 155 156 157
3 158 159 160
3 161 162 163
3 164 165 166
3 12 14 167
3 168 169 170
3 171 172 173
3 174 175 176
3 24 26 42
3 27 29 177
3 30 32 178
3 33 35 179
3 180 181 182
3 25 40 26
3 41 42 43
3 39 43 40
3 56 58 183
3 184 185 186
3 187 188 189
3 190 191 192
3 193 194 195
3 71 73 196
3 74 76 197
3 77 79 198
3 80 82 199
3 83 85 200
3 201 202 203
3 204 205 206
3 104 106 207
3 208 209 210
3 211 212 213
3 214 215 216
3 116 118 131
3 119 121 217
3 122 124 218
3 125 127 219
3 117 220 118
3 221 222 223
3 133 135 224
3 148 150 225
3 151 225 150
3 148 154 153
3 154 151 152
